<?xml version="1.0" encoding="UTF-8"?>
<svg width="64px" height="64px" viewBox="0 0 64 64" version="1.1" xmlns="http://www.w3.org/2000/svg" xmlns:xlink="http://www.w3.org/1999/xlink">
    <title>Group 2</title>
    <g id="Page-1" stroke="none" stroke-width="1" fill="none" fill-rule="evenodd">
        <g id="Group-2">
            <circle id="Oval" fill="#03375E" cx="32" cy="32" r="32"></circle>
            <path d="M23.2783051,54.3785714 C23.8283051,54.3785714 25.2033051,52.7285714 27.4033051,49.4285714 L27.4033051,49.4285714 L30.8683051,44.4785714 L35.3233051,48.9335714 C37.8533051,51.4635714 39.8883051,52.7285714 41.4283051,52.7285714 C42.9683051,52.7285714 45.0583051,51.5185714 47.6983051,49.0985714 C49.4583051,47.4485714 50.3933051,45.9360714 50.5033051,44.5610714 C50.6133051,43.1860714 50.2558051,42.0860714 49.4308051,41.2610714 C48.6058051,40.4360714 47.8083051,39.6660714 47.0383051,38.9510714 C46.2683051,38.2360714 46.1033051,37.4660714 46.5433051,36.6410714 C46.9833051,35.8160714 48.3583051,34.9635714 50.6683051,34.0835714 C53.1983051,33.0935714 54.6008051,32.0485714 54.8758051,30.9485714 C55.1508051,29.8485714 54.7383051,27.3185714 53.6383051,23.3585714 C52.7583051,20.6085714 51.7683051,18.9585714 50.6683051,18.4085714 C49.5683051,17.8585714 47.8083051,18.2435714 45.3883051,19.5635714 C43.6283051,20.4435714 42.5558051,20.8285714 42.1708051,20.7185714 C41.7858051,20.6085714 41.3733051,19.9485714 40.9333051,18.7385714 C40.1633051,16.7585714 39.9708051,15.1085714 40.3558051,13.7885714 C40.7408051,12.4685714 40.8508051,11.3135714 40.6858051,10.3235714 C40.5208051,9.33357143 39.6683051,8.50857143 38.1283051,7.84857143 C36.1483051,7.18857143 34.8833051,6.91357143 34.3333051,7.02357143 C33.4533051,7.13357143 32.3258051,7.27107143 30.9508051,7.43607143 C29.5758051,7.60107143 28.5033051,7.76607143 27.7333051,7.93107143 C26.9633051,8.09607143 26.1658051,8.37107143 25.3408051,8.75607143 C24.5158051,9.14107143 23.9383051,9.74607143 23.6083051,10.5710714 C23.2783051,11.3960714 23.1683051,12.5235714 23.2783051,13.9535714 L23.2783051,13.9535714 L23.6083051,17.2535714 L18.3283051,17.0885714 C15.6883051,16.8685714 14.0658051,16.9235714 13.4608051,17.2535714 C12.8558051,17.5835714 12.1133051,18.7385714 11.2333051,20.7185714 C8.92330508,26.4385714 9.85830508,30.3435714 14.0383051,32.4335714 C16.4583051,33.6435714 17.7783051,34.5235714 17.9983051,35.0735714 C18.2183051,35.6235714 17.7233051,36.9435714 16.5133051,39.0335714 C14.9733051,41.5635714 14.2033051,43.3785714 14.2033051,44.4785714 C14.2033051,45.2485714 15.5233051,47.0910714 18.1633051,50.0060714 C20.8033051,52.9210714 22.5083051,54.3785714 23.2783051,54.3785714 Z" id="*" fill="#FFFFFF" fill-rule="nonzero"></path>
        </g>
    </g>
</svg>