<?xml version="1.0" encoding="UTF-8"?>
<svg width="95px" height="30px" viewBox="0 0 95 30" version="1.1" xmlns="http://www.w3.org/2000/svg" xmlns:xlink="http://www.w3.org/1999/xlink">
    <title>*SJAm</title>
    <g id="Page-1" stroke="none" stroke-width="1" fill="none" fill-rule="evenodd">
        <path d="M4.368,15.784 C4.528,15.784 4.928,15.304 5.568,14.344 L5.568,14.344 L6.576,12.904 L7.872,14.2 C8.608,14.936 9.2,15.304 9.648,15.304 C10.096,15.304 10.704,14.952 11.472,14.248 C11.984,13.768 12.256,13.328 12.288,12.928 C12.32,12.528 12.216,12.208 11.976,11.968 C11.736,11.728 11.504,11.504 11.28,11.296 C11.056,11.088 11.008,10.864 11.136,10.624 C11.264,10.384 11.664,10.136 12.336,9.88 C13.072,9.592 13.48,9.288 13.56,8.968 C13.64,8.648 13.52,7.912 13.2,6.76 C12.944,5.96 12.656,5.48 12.336,5.32 C12.016,5.16 11.504,5.272 10.8,5.656 C10.288,5.912 9.976,6.024 9.864,5.992 C9.752,5.96 9.632,5.768 9.504,5.416 C9.28,4.84 9.224,4.36 9.336,3.976 C9.448,3.592 9.48,3.256 9.432,2.968 C9.384,2.68 9.136,2.44 8.688,2.248 C8.112,2.056 7.744,1.976 7.584,2.008 C7.328,2.04 7,2.08 6.6,2.128 C6.2,2.176 5.888,2.224 5.664,2.272 C5.44,2.32 5.208,2.4 4.968,2.512 C4.728,2.624 4.56,2.8 4.464,3.04 C4.368,3.28 4.336,3.608 4.368,4.024 L4.368,4.024 L4.464,4.984 L2.928,4.936 C2.16,4.872 1.688,4.888 1.512,4.984 C1.336,5.08 1.12,5.416 0.864,5.992 C0.192,7.656 0.464,8.792 1.68,9.4 C2.384,9.752 2.768,10.008 2.832,10.168 C2.896,10.328 2.752,10.712 2.4,11.32 C1.952,12.056 1.728,12.584 1.728,12.904 C1.728,13.128 2.112,13.664 2.88,14.512 C3.648,15.36 4.144,15.784 4.368,15.784 Z M21.352,28.696 C22.216,28.952 23.4,29.056 24.904,29.008 C26.408,28.96 27.464,28.776 28.072,28.456 C29.384,27.848 30.408,27.008 31.144,25.936 C31.88,24.864 32.248,23.688 32.248,22.408 C32.248,21.256 32.104,20.376 31.816,19.768 C31.368,18.712 30.488,17.416 29.176,15.88 C27.864,14.344 26.472,12.984 25,11.8 C23.624,10.712 22.768,9.672 22.432,8.68 C22.096,7.688 22.296,6.84 23.032,6.136 C23.384,5.816 23.656,5.632 23.848,5.584 C24.04,5.536 24.296,5.592 24.616,5.752 C24.872,5.848 25.104,5.992 25.312,6.184 C25.52,6.376 25.688,6.56 25.816,6.736 C25.944,6.912 26.16,7.192 26.464,7.576 C26.768,7.96 27.016,8.296 27.208,8.584 L27.208,8.584 L27.88,9.4 L29.464,8.824 C30.68,8.44 31.376,8.128 31.552,7.888 C31.728,7.648 31.672,7.112 31.384,6.28 C31.096,5.416 30.408,4.496 29.32,3.52 C28.232,2.544 27.208,1.912 26.248,1.624 C25.608,1.464 24.744,1.368 23.656,1.336 C22.568,1.304 21.72,1.368 21.112,1.528 C20.6,1.656 19.864,2.088 18.904,2.824 C17.944,3.56 17.368,4.152 17.176,4.6 C16.92,5.08 16.68,5.928 16.456,7.144 C16.296,7.944 16.232,8.528 16.264,8.896 C16.296,9.264 16.424,9.72 16.648,10.264 C16.936,10.872 17.848,11.92 19.384,13.408 C20.92,14.896 22.36,16.136 23.704,17.128 C24.44,17.672 25.128,18.456 25.768,19.48 C26.408,20.504 26.728,21.336 26.728,21.976 C26.728,22.584 26.44,23.224 25.864,23.896 C25.416,24.376 25.072,24.656 24.832,24.736 C24.592,24.816 24.12,24.792 23.416,24.664 C21.848,24.44 20.712,23.384 20.008,21.496 C19.784,20.888 19.472,20.528 19.072,20.416 C18.672,20.304 18.024,20.392 17.128,20.68 C16.2,20.968 15.68,21.336 15.568,21.784 C15.456,22.232 15.688,23 16.264,24.088 C16.712,25.016 17.472,25.96 18.544,26.92 C19.616,27.88 20.552,28.472 21.352,28.696 Z M45.392,28.984 L46.88,27.304 C47.296,26.792 47.6,26.408 47.792,26.152 C47.984,25.896 48.192,25.448 48.416,24.808 C48.64,24.168 48.792,23.6 48.872,23.104 C48.952,22.608 49.04,21.648 49.136,20.224 C49.232,18.8 49.304,17.432 49.352,16.12 C49.4,14.808 49.456,12.76 49.52,9.976 C49.616,6.264 49.648,4 49.616,3.184 C49.584,2.368 49.424,1.832 49.136,1.576 C48.752,1.256 48.176,1.032 47.408,0.904 C46.64,0.776 46.032,0.808 45.584,1 C45.36,1.064 45.216,1.192 45.152,1.384 C44.96,1.832 44.832,5.048 44.768,11.032 C44.672,16.152 44.528,19.432 44.336,20.872 C44.144,22.312 43.696,23.432 42.992,24.232 C42.416,24.872 41.728,25.04 40.928,24.736 C40.128,24.432 39.648,23.832 39.488,22.936 C39.328,22.008 39.072,21.448 38.72,21.256 C38.368,21.064 37.584,21.048 36.368,21.208 L36.368,21.208 L34.352,21.448 L34.256,22.552 C34.064,24.44 34.656,25.912 36.032,26.968 C37.088,27.768 38.056,28.304 38.936,28.576 C39.816,28.848 41.024,28.984 42.56,28.984 L42.56,28.984 L45.392,28.984 Z M52.728,29.272 C53.464,29.336 54.264,29.272 55.128,29.08 C55.768,28.952 56.176,28.768 56.352,28.528 C56.528,28.288 56.824,27.576 57.24,26.392 L57.24,26.392 L58.008,23.992 L62.184,23.992 L63.048,26.248 C63.624,27.752 64.112,28.624 64.512,28.864 C64.912,29.104 65.752,29.16 67.032,29.032 L67.032,29.032 L67.224,29.032 C68.216,28.936 68.792,28.712 68.952,28.36 C69.112,28.008 68.968,26.616 68.52,24.184 L68.52,24.184 L64.152,0.808 L57.912,0.616 L57.432,1.528 C56.984,2.392 56.376,5 55.608,9.352 C53.016,20.168 51.688,26.392 51.624,28.024 C51.624,28.568 51.672,28.896 51.768,29.008 C51.864,29.12 52.184,29.208 52.728,29.272 Z M61.56,18.232 L60.264,18.232 C59.656,18.232 59.296,18.184 59.184,18.088 C59.072,17.992 59.016,17.704 59.016,17.224 C59.048,16.584 59.304,15.384 59.784,13.624 C60.264,11.864 60.584,10.984 60.744,10.984 C60.904,10.984 61.072,11.68 61.248,13.072 C61.424,14.464 61.528,15.752 61.56,16.936 L61.56,16.936 L61.56,18.232 Z M89.328,29.272 C89.68,29.592 90.408,29.696 91.512,29.584 C92.616,29.472 93.296,29.24 93.552,28.888 C94.0908387,28.1396129 94.3636379,22.9525661 94.3703975,13.3268595 L94.3701478,12.3152633 C94.3697482,11.9727867 94.3690323,11.6250323 94.368,11.272 C94.368,11.156 94.3679722,11.0418611 94.3679167,10.9295833 L94.36725,10.27825 C94.36375,8.07675 94.348,6.696 94.32,6.136 C94.256,3.928 93.952,2.648 93.408,2.296 C93.12,2.072 92.208,1.96 90.672,1.96 C89.104,1.96 88.144,2.088 87.792,2.344 C87.536,2.536 87.008,3.912 86.208,6.472 C85.408,9.032 84.992,10.664 84.96,11.368 C84.96,11.912 84.808,12.704 84.504,13.744 C84.2,14.784 83.968,15.32 83.808,15.352 C83.744,15.384 83.48,14.76 83.016,13.48 C82.552,12.2 82.064,10.72 81.552,9.04 C81.04,7.36 80.688,6.008 80.496,4.984 C80.208,3.736 79.808,2.92 79.296,2.536 C78.784,2.152 77.84,1.96 76.464,1.96 C74.896,1.96 73.952,2.136 73.632,2.488 C73.408,2.744 73.264,3.472 73.2,4.672 C73.136,5.872 73.088,8.456 73.056,12.424 C73.018,16.11 72.9969219,19.1416875 72.9927656,21.5190625 L72.9923906,22.9335625 C72.9937969,23.9291875 72.999,24.778 73.008,25.48 L73.008,25.48 L73.056,29.224 L74.976,29.272 C76.256,29.272 77.04,29.112 77.328,28.792 C77.584,28.472 77.76,27.08 77.856,24.616 C77.984,20.264 78.112,17.832 78.24,17.32 C78.368,16.808 78.528,16.648 78.72,16.84 C78.752,16.84 78.944,17.656 79.296,19.288 C79.648,20.92 80.08,22.712 80.592,24.664 C81.104,26.616 81.536,27.96 81.888,28.696 C82.144,29.208 82.656,29.512 83.424,29.608 C84.032,29.64 84.448,29.56 84.672,29.368 C84.992,29.048 85.504,27.48 86.208,24.664 C86.688,22.84 87.128,21.272 87.528,19.96 C87.928,18.648 88.192,17.784 88.32,17.368 C88.448,16.952 88.512,16.568 88.512,16.216 C88.512,15.736 88.616,15.496 88.824,15.496 C89.032,15.496 89.072,17.72 88.944,22.168 C88.884,24.028 88.852125,25.459875 88.848375,26.463625 L88.848375,26.8422917 C88.850125,27.2574306 88.858,27.5793333 88.872,27.808 C88.92,28.592 89.072,29.08 89.328,29.272 Z" id="*SJAm" fill="#FFFFFF" fill-rule="nonzero"></path>
    </g>
</svg>