<?xml version="1.0" encoding="UTF-8"?>
<svg width="142px" height="200px" viewBox="0 0 142 200" version="1.1" xmlns="http://www.w3.org/2000/svg" xmlns:xlink="http://www.w3.org/1999/xlink">
    <title>html5</title>
    <defs>
        <polygon id="path-1" points="0 1.85781021e-14 141.687094 1.85781021e-14 141.687094 160.691571 0 160.691571"></polygon>
    </defs>
    <g id="Page-1" stroke="none" stroke-width="1" fill="none" fill-rule="evenodd">
        <g id="html5">
            <g id="Group-3" transform="translate(0.000000, 39.308429)">
                <mask id="mask-2" fill="white">
                    <use xlink:href="#path-1"></use>
                </mask>
                <g id="Clip-2"></g>
                <polyline id="Fill-1" fill="#D2492B" mask="url(#mask-2)" points="12.8764258 144.64588 -0.0196097657 1.85781021e-14 141.687094 1.85781021e-14 128.777004 144.623002 70.7468052 160.711181 12.8764258 144.64588"></polyline>
            </g>
            <polyline id="Fill-4" fill="#E05F30" points="70.8337419 187.722653 117.72494 174.722685 128.757395 51.1354054 70.8337419 51.1354054 70.8337419 187.722653"></polyline>
            <polyline id="Fill-5" fill="#EBEBE7" points="70.8337419 104.782822 47.3588914 104.782822 45.7374906 86.6163349 70.8337419 86.6163349 70.8337419 68.8760336 26.3496421 68.8760336 31.1344249 122.52247 70.8337419 122.52247 70.8337419 104.782822"></polyline>
            <polyline id="Fill-6" fill="#EBEBE7" points="70.8337419 150.855639 70.7559565 150.876557 50.9987907 145.541393 49.7352682 131.392947 31.9269863 131.392947 34.4125241 159.247639 70.7520345 169.335556 70.8337419 169.313005 70.8337419 150.855639"></polyline>
            <polyline id="Fill-7" fill="#0A0B09" points="13.1646893 0 22.1802791 0 22.1802791 8.90708239 30.4268392 8.90708239 30.4268392 0 39.4427558 0 39.4427558 26.9729058 30.4271661 26.9729058 30.4271661 17.9409746 22.1806059 17.9409746 22.1806059 26.9729058 13.165343 26.9729058 13.165343 0 13.1646893 0"></polyline>
            <polyline id="Fill-8" fill="#0A0B09" points="51.2981665 8.94466778 43.3614407 8.94466778 43.3614407 0 68.254404 0 68.254404 8.94466778 60.3140831 8.94466778 60.3140831 26.9729058 51.2988201 26.9729058 51.2988201 8.94466778 51.2981665 8.94466778"></polyline>
            <polyline id="Fill-9" fill="#0A0B09" points="72.2051181 0 81.605713 0 87.388306 9.47739975 93.1650162 0 102.569206 0 102.569206 26.9729058 93.5908749 26.9729058 93.5908749 13.6036213 87.388306 23.194104 87.2333889 23.194104 81.0265712 13.6036213 81.0265712 26.9729058 72.2051181 26.9729058 72.2051181 0"></polyline>
            <polyline id="Fill-10" fill="#0A0B09" points="107.055921 0 116.074125 0 116.074125 18.0573259 128.752165 18.0573259 128.752165 26.9729058 107.055921 26.9729058 107.055921 0"></polyline>
            <polyline id="Fill-11" fill="#FFFFFE" points="70.7722979 104.782822 70.7722979 122.52247 92.6172501 122.52247 90.5582247 145.530281 70.7722979 150.870674 70.7722979 169.327058 107.140569 159.247639 111.576298 109.546361 112.00902 104.782822 70.7722979 104.782822"></polyline>
            <polyline id="Fill-12" fill="#FFFFFE" points="70.7722979 68.8760336 70.7722979 86.6163349 113.623231 86.6163349 113.979148 82.6286891 114.787397 73.6353237 115.211622 68.8760336 70.7722979 68.8760336"></polyline>
        </g>
    </g>
</svg>