<?xml version="1.0" encoding="UTF-8"?>
<svg width="200px" height="150px" viewBox="0 0 200 150" version="1.1" xmlns="http://www.w3.org/2000/svg" xmlns:xlink="http://www.w3.org/1999/xlink">
    <title>sass</title>
    <defs>
        <polygon id="path-1" points="0 0 200 0 200 149.918391 0 149.918391"></polygon>
    </defs>
    <g id="Page-1" stroke="none" stroke-width="1" fill="none" fill-rule="evenodd">
        <g id="sass">
            <mask id="mask-2" fill="white">
                <use xlink:href="#path-1"></use>
            </mask>
            <g id="Clip-2"></g>
            <path d="M141.462244,113.199878 C140.837374,112.731026 140.915783,111.285264 143.024819,106.753556 C143.845711,104.956555 145.720321,101.949018 148.963084,99.0966988 C149.353528,100.26883 149.588754,101.400957 149.548749,102.456275 C149.510345,109.488263 144.509785,112.106156 141.462244,113.199878 Z M114.740851,119.294161 C113.881555,119.724609 113.099867,120.036644 112.748628,119.803018 C112.474997,119.6462 113.099867,119.060535 113.099867,119.060535 C113.099867,119.060535 117.436353,114.411214 119.154945,112.262973 C120.131855,111.013233 121.303186,109.567472 122.553726,107.926488 L122.553726,108.39534 C122.553726,114.01997 117.162722,117.77079 114.740851,119.294161 Z M80.0881699,102.729906 C78.0960268,107.613653 73.8767542,120.153457 71.3374298,119.450979 C69.1492647,118.864513 67.821436,109.37145 70.9073016,99.9951995 C72.4699566,95.26747 75.7906486,89.64284 77.7439873,87.4545949 C80.9090618,83.9382011 84.3462468,82.7660698 85.2063431,84.2118317 C86.2216568,86.0872418 81.3387099,99.6831645 80.0881699,102.729906 Z M38.0915463,131.287504 C32.3486631,137.577809 24.2618373,139.960476 20.8239323,137.929048 C17.1126366,135.780807 18.5576785,126.52137 25.6291905,119.841422 C29.9265518,115.778567 35.5130975,112.027747 39.1854288,109.722689 C40.0057606,109.215432 41.2559007,108.472949 42.7404669,107.574448 C42.9748932,107.418431 43.1311507,107.340022 43.1311507,107.340022 C43.4046213,107.184005 43.7171363,106.987983 44.0296513,106.792761 C46.6471445,116.325028 44.1468644,124.685965 38.0915463,131.287504 Z M172.168883,86.0872418 C165.1761,86.1272463 159.121022,87.8066343 154.042053,90.3069144 C152.166643,86.5960988 150.291233,83.3525355 149.979198,80.9314643 C149.627958,78.1182692 149.19831,76.3989567 149.627958,73.0396204 C150.056806,69.6794041 152.010625,64.9132703 152.010625,64.5225865 C151.971421,64.1710272 151.580177,62.4520346 147.556526,62.4129903 C143.533676,62.3739459 140.055686,63.1943578 139.665243,64.2491159 C139.274799,65.303954 138.493111,67.7260653 137.985854,70.2263454 C137.282576,73.8986767 129.937753,86.9081337 125.757285,93.7448994 C124.389932,91.0878018 123.2186,88.7443394 122.983374,86.8681292 C122.632135,84.0558143 122.202487,82.3364217 122.632135,78.9773255 C123.061783,75.6171891 125.015602,70.8514554 125.015602,70.4607716 C124.976397,70.1092122 124.585954,68.3902197 120.562303,68.3511753 C116.537852,68.312131 113.061463,69.1325428 112.670219,70.187301 C112.279775,71.2421391 111.850127,73.7424192 110.990831,76.1645304 C110.169939,78.5867217 100.403245,100.308034 97.8637607,105.972669 C96.5748164,108.863393 95.4418895,111.168451 94.6209976,112.731026 C93.8009057,114.293601 94.5825933,112.848639 94.5041845,113.004657 C93.8009057,114.332805 93.410462,115.075288 93.410462,115.075288 L93.410462,115.114493 C92.8632007,116.091402 92.2775351,117.028307 92.0031043,117.028307 C91.8078825,117.028307 91.4174388,114.411214 92.0815131,110.817212 C93.5272751,103.277167 97.0428688,91.51825 97.0044645,91.0886019 C97.0044645,90.8933801 97.6677388,88.8219481 94.7378106,87.76743 C91.8862913,86.7129118 90.8709775,88.4707087 90.6357512,88.4707087 C90.4013249,88.4707087 90.2061031,89.0963788 90.2061031,89.0963788 C90.2061031,89.0963788 93.3704575,75.8528155 84.1510249,75.8528155 C78.3690973,75.8528155 70.3994047,82.1428 66.4536828,87.8850431 C63.9534028,89.2523963 58.6403277,92.14312 53.0146576,95.2298657 C50.866017,96.401997 48.6392076,97.651737 46.5296113,98.7846639 L46.1002032,98.3158114 C34.9271118,86.4000768 14.2607172,77.9616117 15.1201735,61.9442178 C15.4327685,56.1232458 17.464196,40.7699262 54.812539,22.1740835 C85.401565,6.93805706 109.897108,11.1182052 114.154385,20.4161266 C120.210264,33.6988143 101.06732,58.3890996 69.2672779,61.9442178 C57.1565615,63.3115709 50.7882483,58.6235258 49.1868689,56.8654889 C47.5070008,55.0293633 47.2726545,54.9511945 46.6475445,55.3028339 C45.6318308,55.8497752 46.2568608,57.4905989 46.6475445,58.4672683 C47.5851695,60.928424 51.4918471,65.303954 58.1332309,67.4917191 C63.9538028,69.4059335 78.1745155,70.4607716 95.3642808,63.8193878 C114.624038,56.3576721 129.664922,35.652153 125.250028,18.3455747 C120.757525,0.726401357 91.5350519,-5.05552622 63.9150785,4.75029203 C47.4675564,10.6103084 29.6530811,19.7519722 16.839166,31.7454755 C1.60305954,45.9658682 -0.819051734,58.3890996 0.196662026,63.5459171 C3.75218024,81.946778 29.1061399,93.9401213 39.2635175,102.808315 C38.7556206,103.081145 38.2868481,103.354776 37.85712,103.589202 C32.7783912,106.089482 13.4403053,116.208215 8.59600275,126.911814 C3.12667019,139.022771 9.45553902,147.734946 13.6747316,148.907078 C26.723073,152.540285 40.0839294,146.016354 47.3112989,135.272751 C54.4992239,124.529147 53.6401677,110.582785 50.3194758,104.214872 L50.2018626,103.980446 L54.1867089,101.636183 C56.7654777,100.112813 59.3048021,98.7062551 61.5312915,97.4949194 C60.2814715,100.8937 59.3825708,104.917351 58.9141984,110.777207 C58.3672571,117.653177 61.1800522,126.560575 64.8914278,130.076169 C66.5321716,131.599539 68.4855904,131.638744 69.696606,131.638744 C73.9939673,131.638744 75.9473061,128.083945 78.0960268,123.825868 C80.7522443,118.630087 83.0965068,112.613413 83.0965068,112.613413 C83.0965068,112.613413 80.1665787,128.904037 88.1754757,128.904037 C91.1054038,128.904037 94.035332,125.114813 95.3634807,123.161794 L95.3634807,123.200999 C95.3634807,123.200999 95.4418895,123.083385 95.597907,122.809755 C95.7619253,122.567328 95.9179428,122.3201 96.0667595,122.068072 L96.0667595,121.989663 C97.2388908,119.958235 99.8559839,115.309715 103.762821,107.613653 C108.801786,97.6901413 113.647128,85.2671499 113.647128,85.2671499 C113.647128,85.2671499 114.115981,88.3146912 115.560943,93.3152513 C116.420239,96.2843839 118.295649,99.526347 119.740611,102.690701 C118.56928,104.331685 117.866001,105.26939 117.866001,105.26939 L117.904405,105.308595 C116.9675,106.559135 115.912182,107.887283 114.81926,109.215432 C110.834013,113.981566 106.06788,119.412574 105.44301,120.975149 C104.700526,122.810555 104.856544,124.177908 106.302306,125.272431 C107.356824,126.053318 109.232234,126.209335 111.224457,126.053318 C114.81926,125.818892 117.31954,124.920391 118.56928,124.37313 C120.522298,123.669851 122.749748,122.615333 124.897989,121.052758 C128.804826,118.162034 131.187493,114.059975 130.953867,108.590562 C130.836254,105.583025 129.859344,102.613893 128.648809,99.8007777 C129.000048,99.2927208 129.352087,98.7846639 129.703327,98.2382027 C135.876018,89.2131919 140.642152,79.2906406 140.642152,79.2906406 C140.642152,79.2906406 141.111004,82.3380219 142.555966,87.3385819 C143.298449,89.8780663 144.783416,92.651977 146.111564,95.3866833 C140.329317,100.113613 136.69611,105.583025 135.44637,109.177028 C133.141312,115.818572 134.938313,118.826909 138.337094,119.530187 C139.860464,119.842222 142.048709,119.138944 143.688893,118.436465 C145.720321,117.77159 148.181396,116.638664 150.44805,114.959275 C154.354888,112.068552 158.104908,108.044101 157.909686,102.613893 C157.792073,100.113613 157.127998,97.6525371 156.229498,95.3082745 C161.152449,93.276847 167.519562,92.1047157 175.606868,93.0816251 C192.992015,95.1130527 196.4292,105.973469 195.765926,110.505177 C195.101851,115.037684 191.468644,117.537964 190.257309,118.318852 C189.045973,119.061335 188.655529,119.334966 188.772343,119.881427 C188.92836,120.702319 189.475621,120.663114 190.530139,120.507097 C191.975901,120.272671 199.671963,116.795481 199.984798,108.436145 C200.453651,97.6909414 190.257309,85.9704287 172.168883,86.0872418 L172.168883,86.0872418 Z" id="Fill-1" fill="#C15D8C" mask="url(#mask-2)"></path>
        </g>
    </g>
</svg>