<?xml version="1.0" encoding="UTF-8"?>
<svg width="200px" height="200px" viewBox="0 0 200 200" version="1.1" xmlns="http://www.w3.org/2000/svg" xmlns:xlink="http://www.w3.org/1999/xlink">
    <title>wordpress</title>
    <defs>
        <polygon id="path-1" points="0 0 200 0 200 200.003793 0 200.003793"></polygon>
    </defs>
    <g id="Page-1" stroke="none" stroke-width="1" fill="none" fill-rule="evenodd">
        <g id="wordpress">
            <path d="M14.1956064,100.008622 C14.1956064,133.971445 33.9314412,163.317585 62.549919,177.227299 L21.6232714,65.0925958 C16.8627789,75.76301 14.1956064,87.5718178 14.1956064,100.008622" id="Fill-1" fill="#186B8A"></path>
            <path d="M157.911163,95.6802428 C157.911163,85.0767321 154.102493,77.7335586 150.834224,72.0181398 C146.487223,64.950857 142.411629,58.9657551 142.411629,51.8984723 C142.411629,44.0114495 148.391903,36.6700003 156.816567,36.6700003 C157.197296,36.6700003 157.557334,36.7179363 157.930476,36.7386281 C142.663379,22.7551126 122.327482,14.2162982 99.9913784,14.2162982 C70.0172432,14.2162982 43.6479636,29.5947857 28.3063765,52.8885747 C30.320378,52.9489258 32.2191951,52.9889299 33.8276373,52.9889299 C42.8013243,52.9889299 56.6944856,51.9001966 56.6944856,51.9001966 C61.3194468,51.6274097 61.8646757,58.4208711 57.2462669,58.9674794 C57.2462669,58.9674794 52.5961306,59.5144325 47.4242163,59.7854951 L78.6688278,152.717523 L97.4459427,96.4054902 L84.075594,59.7837707 C79.4554609,59.5123633 75.0788013,58.9657551 75.0788013,58.9657551 C70.4555644,58.6946926 70.9973446,51.6256854 75.6209263,51.8984723 C75.6209263,51.8984723 89.7892885,52.9872056 98.2198158,52.9872056 C107.192468,52.9872056 121.084595,51.8984723 121.084595,51.8984723 C125.713005,51.6256854 126.256509,58.4188019 121.634997,58.9657551 C121.634997,58.9657551 116.977963,59.5123633 111.815705,59.7837707 L142.820981,152.012622 L151.376004,123.415871 C155.087768,111.548091 157.911163,103.024796 157.911163,95.6802428" id="Fill-2" fill="#186B8A"></path>
            <path d="M101.496362,107.51457 L75.7547332,182.313343 C83.4407008,184.575991 91.5684381,185.811291 99.9910336,185.811291 C109.982412,185.811291 119.563748,184.081457 128.482257,180.946995 C128.249129,180.58075 128.040487,180.190365 127.871504,179.765838 L101.496362,107.51457" id="Fill-3" fill="#186B8A"></path>
            <g id="Group-7">
                <mask id="mask-2" fill="white">
                    <use xlink:href="#path-1"></use>
                </mask>
                <g id="Clip-5"></g>
                <path d="M175.274339,58.8460875 C175.642653,61.578784 175.85164,64.5152947 175.85164,67.6687244 C175.85164,76.3751423 174.22561,86.1623616 169.327862,98.3998345 L143.121702,174.170431 C168.628479,159.296134 185.784392,131.662586 185.784392,100.008622 C185.785426,85.0943201 181.975032,71.0676967 175.274339,58.8460875" id="Fill-4" fill="#186B8A" mask="url(#mask-2)"></path>
                <path d="M99.9913784,195.438839 C47.3755906,195.438839 4.56461013,152.628548 4.56461013,100.008622 C4.56461013,47.3945581 47.3724868,4.58806083 99.9913784,4.58806083 C152.606821,4.58806083 195.413319,47.3942132 195.413319,100.008622 C195.413319,152.629238 152.605442,195.438839 99.9913784,195.438839 Z M99.9913784,0 C44.8453288,0 -0.0206917957,44.8646412 -0.0206917957,100.008966 C-0.0206917957,155.161224 44.8436045,200.025865 99.9913784,200.025865 C155.135359,200.025865 200.008622,155.162603 200.008622,100.008966 C200.008622,44.8642963 155.135359,0 99.9913784,0 L99.9913784,0 Z" id="Fill-6" fill="#186B8A" mask="url(#mask-2)"></path>
            </g>
        </g>
    </g>
</svg>