<?xml version="1.0" encoding="UTF-8"?>
<svg width="244px" height="77px" viewBox="0 0 244 77" version="1.1" xmlns="http://www.w3.org/2000/svg" xmlns:xlink="http://www.w3.org/1999/xlink">
    <!-- Generator: Sketch 40.3 (33839) - http://www.bohemiancoding.com/sketch -->
    <title>Group 2</title>
    <desc>Created with Sketch.</desc>
    <defs></defs>
    <g id="Page-1" stroke="none" stroke-width="1" fill="none" fill-rule="evenodd">
        <g id="businessCardBack1" transform="translate(-100.000000, -91.000000)">
            <g id="Group-4" transform="translate(100.000000, 91.000000)">
                <g id="Group-2">
                    <path d="M242,53 L2,53" id="Line" stroke="#58E2C3" stroke-width="3" stroke-linecap="square"></path>
                    <path d="M9.02827354,1.20603433 C7.58799985,1.5687307 3.94803666,4.38367145 3.33667753,5.60759404 C3.04610785,6.1894378 2.56928424,7.88678102 2.29128924,9.32863276 C1.85198683,11.6077521 1.89890525,12.2344676 2.62587028,13.7938792 C3.4356524,15.5311536 8.88893801,20.8876084 12.7452397,23.7337496 C14.8825291,25.3110964 17.1302863,28.8808706 17.1471877,30.7245377 C17.1540159,31.4687454 16.601609,32.654835 15.8582158,33.4921025 C14.6402975,34.8637026 14.4178745,34.9363231 12.3735431,34.6293272 C10.0610195,34.2820619 8.493985,32.8176727 7.44859672,30.0268937 C6.80073046,28.2974026 5.86885229,28.0248558 3.31348874,28.8175223 C0.635623511,29.6482249 0.391972254,30.5850495 2.01910834,33.7944285 C3.33965218,36.3991556 7.07122121,39.7790878 9.35352498,40.4378159 C11.862511,41.1619227 17.2748951,40.9772921 19.0640822,40.1065906 C22.8274936,38.2751736 25.0576733,35.0264727 25.0576733,31.3757533 C25.0576733,29.98033 24.8013121,28.2255265 24.4936382,27.5151587 C23.1860747,24.4960955 18.8782339,19.488598 14.6037228,16.01899 C10.7009083,12.8510311 9.67390881,9.84151074 11.8159982,7.85023389 C12.7916849,6.94318841 13.1559449,6.85229435 14.0926231,7.28206147 C15.5283418,7.94083185 16.0981751,9.17574396 17.856102,11.3752041 L18.7853436,12.5380117 L21.1084136,11.7506242 C24.5465735,10.5852447 24.6525794,10.4401391 23.8292761,8.02626921 C22.9783221,5.53152188 19.2034854,2.11822349 16.4622059,1.36494664 C14.6037228,0.854166738 10.7524239,0.771868028 9.02827354,1.20603433 L9.02827354,1.20603433 Z M40.397156,1.51451913 C40.077313,1.8987377 39.2319026,5.09600198 38.5154165,8.63098876 C36.2850931,19.6357467 34.9397675,22.6721867 33.8598792,31.2826935 C33.0960521,37.3722947 31.3344418,40.7380533 32.0539934,41.6086098 C32.5650931,42.2267976 37.9578716,42.0737058 38.6083745,41.4225579 C38.8115975,41.2191122 39.4538524,39.5852527 40.0254594,37.8177931 L41.0708477,34.5851323 L47.4825805,34.5851323 L50.4561535,41.562046 L53.7781666,41.7016019 C56.4730009,41.8148303 57.1538588,41.7006544 57.3844621,41.09695 C57.6529923,40.393824 57.1539264,37.3759113 54.2693227,22.2592085 L50.3631955,1.09585152 L45.6705426,0.956363327 C41.9535764,0.845774435 40.8571458,0.961845395 40.397156,1.51451913 L40.397156,1.51451913 Z M46.1717043,20.119645 C47.2170926,25.9802472 47.1630756,26.1722549 44.4161172,26.3603373 C41.8416212,26.5365079 41.8260043,26.4919069 42.9366998,22.1197203 C44.4255144,16.2590504 44.5890528,15.7474584 44.9736621,15.7474584 C45.2049415,15.7474584 45.7402442,17.7009699 46.1717043,20.119645 L46.1717043,20.119645 Z M65.1248515,2.60754888 C64.5164671,3.29524394 64.3866639,5.51460191 64.2885679,16.9102661 C64.2244777,24.3522758 64.2036551,32.8176727 64.2421228,35.7945037 L64.3118243,41.1899422 L67.0762926,41.2365059 C69.0741112,41.2700751 70.008288,41.0766461 70.4447509,40.5387942 C71.7623455,38.915588 70.7316614,21.602919 72.4890823,23.2918001 C72.6498679,23.4463365 75.2444428,36.8888818 77.0138025,40.3992384 C77.4533753,41.271361 78.0180864,41.597781 79.2725794,41.7049859 C81.3689673,41.8842022 81.445497,41.748098 83.2795068,34.5851323 C85.706282,25.1068682 86.6135538,24.2241177 86.6135538,22.4220462 C86.6135538,21.8173267 86.8003486,21.3289488 87.0316956,21.3289488 C87.2815666,21.3289488 87.347009,25.2128252 87.1942875,30.9803676 C86.966456,39.5852527 87.0243942,40.7027825 87.7286437,41.2865213 C88.7507756,42.1337378 93.1025601,41.7016019 93.85339,40.6783501 C94.6124677,39.6437281 95.0806378,29.515234 95.0272969,15.2822947 C94.9745643,1.23540739 95.1958381,1.7935632 89.6800171,1.7935632 C87.7286437,1.7935632 86.0056426,2.03734605 85.5449091,2.37872327 C84.7701468,2.95264848 81.5171592,13.3752793 81.4740267,15.4218506 C81.440697,17.0032582 80.2913986,21.0298715 79.8300567,21.1814067 C79.4092783,21.3196766 75.9861269,10.7240561 74.994012,6.21231359 C74.1905172,2.55834562 73.1860304,1.7935632 69.1903256,1.7935632 C66.5884492,1.7935632 65.6850331,1.97447146 65.1248515,2.60754888 L65.1248515,2.60754888 Z M126.205531,1.45103543 C125.47931,1.97981817 125.42509,3.56102275 125.531839,21.0964008 L125.647986,40.1666904 L128.064014,40.2818815 C131.058612,40.4246183 131.530771,39.8875786 131.723245,36.1200438 C132.296001,24.9104316 132.511461,22.2592085 132.849625,22.2592085 C133.366579,22.2592085 133.429048,25.3556044 135.149506,31.0966416 C137.602659,39.2828548 136.903664,40.864402 140.469406,40.864402 L142.467224,40.864402 L143.954011,35.16657 C146.44183,25.6329712 147.717422,22.9752825 147.717422,21.6778385 C147.717422,21.2126748 147.896645,20.8638528 148.135631,20.8638528 C148.380229,20.8638528 148.446145,24.7243797 148.294437,30.1664496 C148.000082,40.7248462 148.038617,40.864402 151.24854,40.864402 C154.627072,40.864402 154.956244,40.2131864 155.386352,32.6781169 C155.588967,29.1285112 155.716133,20.8638528 155.668403,14.352035 C155.566792,0.491199647 155.70153,0.861949922 150.783953,0.9114239 C146.177835,0.957784604 146.39458,0.723747647 144.152501,8.07283295 C143.763633,9.34744776 142.879687,12.5845755 142.196598,15.2357986 C140.986184,19.9335931 140.197022,21.3220454 139.71168,19.6079853 C134.922082,2.69469093 134.70641,1.84615045 133.732421,1.32237601 C132.524373,0.672920072 127.148091,0.764829322 126.205531,1.45103543 L126.205531,1.45103543 Z M163.297852,1.18891133 C162.861524,1.62571714 162.765862,4.53784617 162.857941,14.584583 C162.952903,24.9438951 162.170976,34.3514898 162.600904,37.7945113 L162.926155,40.3992384 L171.614513,40.3294604 C176.400124,40.2910183 180.55335,40.0658474 180.860483,39.8281557 C181.650322,39.2167358 181.650322,34.1570572 180.860483,33.5034728 C180.526578,33.2272036 178.188905,32.9413238 175.633474,32.8641688 L171.010523,32.7246129 L171.010523,23.0034162 L172.869006,22.6135802 C175.213507,22.1218183 175.889024,21.1894606 175.889024,18.4451776 C175.889024,15.9335103 175.563773,15.6175807 172.636712,15.2863555 L170.545868,15.0497467 L170.708528,11.561256 C170.797429,9.65424057 171.05014,7.74600691 171.266073,7.3518394 C171.971471,6.06411585 180.426338,6.73992463 181.092777,6.07275772 C181.272676,5.89266161 181.464811,4.77039417 181.522817,3.56102275 C181.685882,0.159771372 181.278625,-0.0621508902 175.006228,0.0103342402 C167.585155,0.096139613 163.757354,0.728751727 163.297852,1.18891133 L163.297852,1.18891133 Z M196.879134,1.51451913 C196.559291,1.8987377 195.71388,5.09600198 194.997394,8.63098876 C192.767071,19.6357467 191.421745,22.6721867 190.341857,31.2826935 C189.57803,37.3722947 187.816419,40.7380533 188.535971,41.6086098 C189.047071,42.2267976 194.439849,42.0737058 195.090352,41.4225579 C195.293575,41.2191122 195.93583,39.5852527 196.507437,37.8177931 L197.552825,34.5851323 L203.964558,34.5851323 L206.938131,41.562046 L210.260144,41.7016019 C212.954979,41.8148303 213.635836,41.7006544 213.86644,41.09695 C214.13497,40.393824 213.635904,37.3759113 210.7513,22.2592085 L206.845173,1.09585152 L202.15252,0.956363327 C198.435554,0.845774435 197.339123,0.961845395 196.879134,1.51451913 L196.879134,1.51451913 Z M202.653682,20.119645 C203.69907,25.9802472 203.645053,26.1722549 200.898095,26.3603373 C198.323599,26.5365079 198.307982,26.4919069 199.418677,22.1197203 C200.907492,16.2590504 201.07103,15.7474584 201.45564,15.7474584 C201.686919,15.7474584 202.222222,17.7009699 202.653682,20.119645 L202.653682,20.119645 Z M221.26231,1.88655533 C220.846399,2.30298951 220.704765,7.25884727 220.704765,21.3987267 C220.704765,39.8178684 220.730996,40.366549 221.634007,40.8411202 C222.14443,41.1094031 225.536821,41.3644209 229.160829,41.4069915 C237.059349,41.4997129 238.781471,41.0275105 240.978118,38.1666151 C242.941661,35.6093316 243.16165,33.6083765 242.921244,20.4917489 C242.733705,10.2588924 242.690505,9.85443759 241.521466,7.37512127 C239.788797,3.70057862 238.451014,2.27145069 236.26951,1.7643255 C233.435341,1.10552974 221.94905,1.19906331 221.26231,1.88655533 L221.26231,1.88655533 Z M231.483967,8.34605655 C232.729536,8.69677358 233.536141,9.37512882 234.643321,11.0031002 L236.130107,13.1892273 L235.910659,21.7941125 C235.606974,33.7013687 235.062003,35.0172682 230.554726,34.7261771 L228.370991,34.5851323 L228.254844,21.7941125 C228.191024,14.770635 228.235982,8.75139123 228.354495,8.44486914 C228.627893,7.73788532 229.253787,7.7181228 231.483967,8.34605655 L231.483967,8.34605655 Z" id="Sam-Mead" fill="#58E2C3"></path>
                    <path d="M14.2119141,66.3847656 L12.0410156,66.3847656 L10.4501953,73.5654297 L10.3007812,73.5654297 L8.4375,66.3847656 L6.35449219,66.3847656 L4.50878906,73.5654297 L4.359375,73.5654297 L2.75976562,66.3847656 L0.5625,66.3847656 L3.1640625,76 L5.43164062,76 L7.29492188,69.0742188 L7.44433594,69.0742188 L9.31640625,76 L11.6103516,76 L14.2119141,66.3847656 Z M40.5863285,66.3847656 L38.4154301,66.3847656 L36.8246098,73.5654297 L36.6751957,73.5654297 L34.8119144,66.3847656 L32.7289066,66.3847656 L30.8832035,73.5654297 L30.7337894,73.5654297 L29.1341801,66.3847656 L26.9369144,66.3847656 L29.5384769,76 L31.8060551,76 L33.6693363,69.0742188 L33.8187504,69.0742188 L35.6908207,76 L37.984766,76 L40.5863285,66.3847656 Z M66.960743,66.3847656 L64.7898445,66.3847656 L63.1990242,73.5654297 L63.0496101,73.5654297 L61.1863289,66.3847656 L59.1033211,66.3847656 L57.257618,73.5654297 L57.1082039,73.5654297 L55.5085945,66.3847656 L53.3113289,66.3847656 L55.9128914,76 L58.1804695,76 L60.0437508,69.0742188 L60.1931648,69.0742188 L62.0652351,76 L64.3591805,76 L66.960743,66.3847656 Z M80.8195324,76.1845703 C81.6544933,76.1845703 82.2257824,75.5869141 82.2257824,74.7958984 C82.2257824,73.9960938 81.6544933,73.4072266 80.8195324,73.4072266 C79.9933605,73.4072266 79.4132824,73.9960938 79.4132824,74.7958984 C79.4132824,75.5869141 79.9933605,76.1845703 80.8195324,76.1845703 L80.8195324,76.1845703 Z M97.7173843,76 L99.8970718,76 L99.8970718,70.1552734 C99.8970718,68.9775391 100.696877,68.0898438 101.777931,68.0898438 C102.850197,68.0898438 103.518166,68.7314453 103.518166,69.7861328 L103.518166,76 L105.63633,76 L105.63633,70.0146484 C105.63633,68.9160156 106.3834,68.0898438 107.517189,68.0898438 C108.686134,68.0898438 109.275002,68.7050781 109.275002,69.9443359 L109.275002,76 L111.4459,76 L111.4459,69.390625 C111.4459,67.3955078 110.285744,66.1914062 108.360939,66.1914062 C107.025002,66.1914062 105.91758,66.8857422 105.44297,67.9404297 L105.293556,67.9404297 C104.889259,66.859375 103.966408,66.1914062 102.639259,66.1914062 C101.364845,66.1914062 100.38047,66.8417969 99.9673843,67.9404297 L99.8179703,67.9404297 L99.8179703,66.3847656 L97.7173843,66.3847656 L97.7173843,76 Z M129.664064,67.9228516 C130.973635,67.9228516 131.834963,68.8369141 131.878908,70.2607422 L127.352541,70.2607422 C127.449221,68.8544922 128.363283,67.9228516 129.664064,67.9228516 L129.664064,67.9228516 Z M131.896486,73.3544922 C131.58008,74.0664062 130.83301,74.4619141 129.751955,74.4619141 C128.319338,74.4619141 127.396486,73.4599609 127.343752,71.8603516 L127.343752,71.7460938 L134.058596,71.7460938 L134.058596,71.0429688 C134.058596,68.0107422 132.415041,66.1914062 129.672853,66.1914062 C126.886721,66.1914062 125.155275,68.1337891 125.155275,71.2275391 C125.155275,74.3212891 126.860353,76.1933594 129.690432,76.1933594 C131.95801,76.1933594 133.54883,75.1035156 133.961916,73.3544922 L131.896486,73.3544922 Z M151.134182,74.4443359 C150.167385,74.4443359 149.473049,73.9609375 149.473049,73.1523438 C149.473049,72.3701172 150.044338,71.9306641 151.266018,71.8515625 L153.436916,71.7109375 L153.436916,72.4755859 C153.436916,73.5917969 152.452541,74.4443359 151.134182,74.4443359 L151.134182,74.4443359 Z M150.49258,76.1582031 C151.749416,76.1582031 152.804104,75.6132812 153.340237,74.6816406 L153.489651,74.6816406 L153.489651,76 L155.590237,76 L155.590237,69.4345703 C155.590237,67.3955078 154.201565,66.1914062 151.731838,66.1914062 C149.446682,66.1914062 147.855862,67.2724609 147.68008,68.96875 L149.736721,68.96875 C149.938869,68.3183594 150.624416,67.9667969 151.626369,67.9667969 C152.804104,67.9667969 153.436916,68.4941406 153.436916,69.4345703 L153.436916,70.2431641 L150.958401,70.3925781 C148.62051,70.5332031 147.31094,71.5351562 147.31094,73.2753906 C147.31094,75.0332031 148.638088,76.1582031 150.49258,76.1582031 L150.49258,76.1582031 Z M173.289846,76.1582031 C174.625784,76.1582031 175.733206,75.5341797 176.278128,74.4794922 L176.427542,74.4794922 L176.427542,76 L178.536917,76 L178.536917,62.6669922 L176.357229,62.6669922 L176.357229,67.9140625 L176.207815,67.9140625 C175.69805,66.859375 174.608206,66.2265625 173.289846,66.2265625 C170.864065,66.2265625 169.334768,68.1425781 169.334768,71.1835938 C169.334768,74.2421875 170.855276,76.1582031 173.289846,76.1582031 L173.289846,76.1582031 Z M173.966604,68.0810547 C175.460745,68.0810547 176.383596,69.2763672 176.383596,71.1923828 C176.383596,73.1259766 175.469534,74.3037109 173.966604,74.3037109 C172.472464,74.3037109 171.56719,73.1347656 171.56719,71.1923828 C171.56719,69.2587891 172.481253,68.0810547 173.966604,68.0810547 L173.966604,68.0810547 Z M195.51387,76.1845703 C196.348831,76.1845703 196.92012,75.5869141 196.92012,74.7958984 C196.92012,73.9960938 196.348831,73.4072266 195.51387,73.4072266 C194.687698,73.4072266 194.10762,73.9960938 194.10762,74.7958984 C194.10762,75.5869141 194.687698,76.1845703 195.51387,76.1845703 L195.51387,76.1845703 Z M211.446878,76 L213.617777,76 L213.617777,68.1865234 L215.683207,68.1865234 L215.683207,66.4462891 L213.59141,66.4462891 L213.59141,65.6728516 C213.59141,64.7851562 214.030863,64.3984375 214.936136,64.3984375 C215.261332,64.3984375 215.586527,64.4335938 215.771097,64.46875 L215.771097,62.8427734 C215.393167,62.78125 215.103128,62.7460938 214.672464,62.7460938 C212.5543,62.7460938 211.446878,63.5546875 211.446878,65.5058594 L211.446878,66.4462891 L209.873636,66.4462891 L209.873636,68.1865234 L211.446878,68.1865234 L211.446878,76 Z M229.383793,76 L231.56348,76 L231.56348,70.1552734 C231.56348,68.9775391 232.363285,68.0898438 233.44434,68.0898438 C234.516605,68.0898438 235.184574,68.7314453 235.184574,69.7861328 L235.184574,76 L237.302738,76 L237.302738,70.0146484 C237.302738,68.9160156 238.049809,68.0898438 239.183598,68.0898438 C240.352543,68.0898438 240.94141,68.7050781 240.94141,69.9443359 L240.94141,76 L243.112309,76 L243.112309,69.390625 C243.112309,67.3955078 241.952152,66.1914062 240.027348,66.1914062 C238.69141,66.1914062 237.583988,66.8857422 237.109379,67.9404297 L236.959965,67.9404297 C236.555668,66.859375 235.632816,66.1914062 234.305668,66.1914062 C233.031254,66.1914062 232.046879,66.8417969 231.633793,67.9404297 L231.484379,67.9404297 L231.484379,66.3847656 L229.383793,66.3847656 L229.383793,76 Z" id="www.mead.fm" fill="#58E2C3"></path>
                </g>
            </g>
        </g>
    </g>
</svg>